<svg xmlns="http://www.w3.org/2000/svg" version="1.1" xmlns:xlink="http://www.w3.org/1999/xlink" xmlns:svgjs="http://svgjs.com/svgjs" width="1000" height="1000"><rect width="1000" height="1000" rx="200" ry="200" fill="#555555" style="--darkreader-inline-fill: #33383b;" data-darkreader-inline-fill=""></rect><g transform="matrix(10.126582278481013,0,0,10.126582278481013,224.80532874336723,99.35828881550435)"><svg xmlns="http://www.w3.org/2000/svg" version="1.1" xmlns:xlink="http://www.w3.org/1999/xlink" xmlns:svgjs="http://svgjs.com/svgjs" width="51" height="79"><svg width="51" height="79" viewBox="0 0 51 79" fill="none" xmlns="http://www.w3.org/2000/svg">
<path d="M17.2969 14.7812C17.1406 14.7187 16.75 14.4688 16.125 14.0312C15.375 13.5 15 13.1094 15 12.8594C15 12.0156 16.1719 10.0312 18.5156 6.90625C20.8594 3.78125 22.1875 1.90625 22.5 1.28125C23.2812 0.5 24.3594 0.890625 25.7344 2.45312C26.8281 3.76562 27.1719 4.82813 26.7656 5.64062C26.5469 6.45312 25.2188 8.17188 22.7812 10.7969C20.3438 13.4219 18.5156 14.75 17.2969 14.7812ZM28.5 44.2188C27.3438 47.4688 25.0469 50.7812 21.6094 54.1562C17.5469 58.1562 14.1406 60.1562 11.3906 60.1562C7.67188 60.1562 5.34375 58.0469 4.40625 53.8281C4.125 52.5469 3.98438 51.1562 3.98438 49.6562C3.95312 44.8125 4.875 39.2031 6.75 32.8281C9.09375 24.7656 11.3125 20.7344 13.4062 20.7344C14.4375 20.7344 15.1875 20.9844 15.6562 21.4844C16.1562 21.9531 16.4062 22.2969 16.4062 22.5156C16.4062 23.5156 15.3906 25.9844 13.3594 29.9219C11.3281 33.8281 10.0625 36.6719 9.5625 38.4531C9.09375 40.2031 8.73438 42.5 8.48438 45.3438C8.26562 48.1562 8.15625 49.9688 8.15625 50.7812C8.15625 53.5312 8.48438 55.25 9.14062 55.9375C9.82812 56.625 10.6562 56.9844 11.625 57.0156C14.375 57.0156 17.6562 54.625 21.4688 49.8438C23.3125 47.5 24.75 45.3438 25.7812 43.375C26.25 42.625 26.7344 42.25 27.2344 42.25C28.0781 42.375 28.5469 42.7969 28.6406 43.5156C28.6406 43.6094 28.5938 43.8438 28.5 44.2188Z" fill="#00B8C2" style="--darkreader-inline-fill: #00858d;" data-darkreader-inline-fill=""></path>
<path d="M33.0626 39.625C38.4689 34 42.3751 27.8438 44.7814 21.1562C45.6876 18.6562 46.2814 16.2656 46.5626 13.9844C45.8751 12.9844 44.7814 12.5 43.2814 12.5312C41.8126 12.5312 40.7501 12.8594 40.0939 13.5156C39.6564 15.1406 38.7033 18.8438 37.2345 24.625C35.7658 30.375 34.3751 35.375 33.0626 39.625ZM39.0626 4.14062L40.8439 3.90625C41.7814 3.90625 42.3126 4.1875 42.4376 4.75C42.4689 4.90625 42.3595 5.51562 42.1095 6.57812C41.8595 7.60938 41.7345 8.28125 41.7345 8.59375C42.1095 8.53125 42.6564 8.5 43.3751 8.5C46.5314 8.5 48.7189 9.3125 49.9376 10.9375C50.4689 11.6875 50.7345 12.5469 50.7345 13.5156C50.7345 17.8906 49.1564 23.0469 46.0001 28.9844C42.8751 34.8906 39.7658 39.2188 36.672 41.9688C34.9533 43.4688 33.5158 44.2344 32.3595 44.2656C29.547 55.7969 26.547 64.0312 23.3595 68.9688C21.4845 71.875 19.3126 74.1406 16.8439 75.7656C14.3439 77.4219 12.4064 78.25 11.0314 78.25C9.62514 78.25 8.84389 78.1094 8.68764 77.8281C8.50014 77.5469 8.40639 77.3281 8.40639 77.1719C8.37514 77.0469 8.56264 76.9375 8.96889 76.8438C9.37514 76.75 9.57826 76.6875 9.57826 76.6562C11.9845 76.0625 14.297 74.4844 16.5158 71.9219C20.4533 67.1719 24.1408 57.9531 27.5783 44.2656L32.9689 22.2812C35.2189 12.9375 36.6095 7.64063 37.1408 6.39062C37.672 5.10938 38.2814 4.375 38.9689 4.1875C39.0314 4.1875 39.0626 4.17188 39.0626 4.14062Z" fill="#FFD36B" style="--darkreader-inline-fill: #5b3d00;" data-darkreader-inline-fill=""></path>
</svg></svg></g></svg>